<?xml version="1.0" encoding="UTF-8" standalone="no"?>
<!-- Created with Inkscape (http://www.inkscape.org/) -->

<svg
   xmlns:dc="http://purl.org/dc/elements/1.1/"
   xmlns:cc="http://creativecommons.org/ns#"
   xmlns:rdf="http://www.w3.org/1999/02/22-rdf-syntax-ns#"
   xmlns:svg="http://www.w3.org/2000/svg"
   xmlns="http://www.w3.org/2000/svg"
   xmlns:sodipodi="http://sodipodi.sourceforge.net/DTD/sodipodi-0.dtd"
   xmlns:inkscape="http://www.inkscape.org/namespaces/inkscape"
   width="210mm"
   height="297mm"
   viewBox="0 0 744.09448819 1052.3622047"
   id="svg2"
   version="1.1"
   inkscape:version="0.91 r13725"
   sodipodi:docname="drawing.svg">
  <defs
     id="defs4" />
  <sodipodi:namedview
     id="base"
     pagecolor="#ffffff"
     bordercolor="#666666"
     borderopacity="1.0"
     inkscape:pageopacity="0.0"
     inkscape:pageshadow="2"
     inkscape:zoom="1"
     inkscape:cx="426.88337"
     inkscape:cy="181.25404"
     inkscape:document-units="px"
     inkscape:current-layer="layer1"
     showgrid="false"
     inkscape:window-width="1366"
     inkscape:window-height="705"
     inkscape:window-x="-8"
     inkscape:window-y="-8"
     inkscape:window-maximized="1" />
  <metadata
     id="metadata7">
    <rdf:RDF>
      <cc:Work
         rdf:about="">
        <dc:format>image/svg+xml</dc:format>
        <dc:type
           rdf:resource="http://purl.org/dc/dcmitype/StillImage" />
        <dc:title />
      </cc:Work>
    </rdf:RDF>
  </metadata>
  <g
     inkscape:label="Layer 1"
     inkscape:groupmode="layer"
     id="layer1">
    <rect
       style="fill:#2f4267;fill-opacity:1;stroke:#000000;stroke-width:1.63600004;stroke-miterlimit:4;stroke-dasharray:none;stroke-opacity:1"
       id="rect4242"
       width="165"
       height="165"
       x="88"
       y="864.36218"
       ry="40"
       inkscape:export-xdpi="90"
       inkscape:export-ydpi="90" />
    <rect
       style="fill:#2f4267;fill-opacity:1;stroke:#000000;stroke-width:1.74959397;stroke-miterlimit:4;stroke-dasharray:none;stroke-opacity:1"
       id="rect4268"
       width="183.09818"
       height="183.09818"
       x="253.01903"
       y="448.14597" />
    <path
       style="fill:none;fill-opacity:1;stroke:#000000;stroke-width:1.94853592;stroke-miterlimit:4;stroke-dasharray:none;stroke-opacity:1"
       d="m 104.02859,200.23823 -73.676744,-42.53725 -2e-6,-85.074526 73.676746,-42.537278 73.67671,42.537274 1e-5,85.07453 z"
       id="path4136"
       inkscape:connector-curvature="0"
       sodipodi:nodetypes="ccccccc" />
    <circle
       style="fill:#000000;fill-opacity:1;stroke:#000000;stroke-width:3.31111097;stroke-miterlimit:4;stroke-dasharray:none;stroke-opacity:1"
       id="path4139"
       cx="104.02858"
       cy="115.1637"
       r="35.594444" />
    <g
       id="g4149"
       transform="matrix(1.0039388,0,0,1.0039388,-2.1725197,-0.15091844)">
      <rect
         transform="matrix(0.5,-0.8660254,0.8660254,0.5,0,0)"
         y="133.40565"
         x="-46.116077"
         height="45"
         width="72.811531"
         id="rect4141"
         style="fill:none;fill-opacity:1;stroke:#000000;stroke-width:2;stroke-miterlimit:4;stroke-dasharray:none;stroke-opacity:1" />
      <rect
         style="fill:none;fill-opacity:1;stroke:#000000;stroke-width:2;stroke-miterlimit:4;stroke-dasharray:none;stroke-opacity:1"
         id="rect4143"
         width="72.811531"
         height="45"
         x="-119.85819"
         y="119.68056"
         transform="matrix(0.5,-0.8660254,0.8660254,0.5,0,0)" />
      <rect
         transform="matrix(-0.5,-0.8660254,-0.8660254,0.5,0,0)"
         y="-63.543457"
         x="-225.64262"
         height="45"
         width="72.811531"
         id="rect4145"
         style="fill:none;fill-opacity:1;stroke:#000000;stroke-width:2;stroke-miterlimit:4;stroke-dasharray:none;stroke-opacity:1" />
      <rect
         style="fill:none;fill-opacity:1;stroke:#000000;stroke-width:2;stroke-miterlimit:4;stroke-dasharray:none;stroke-opacity:1"
         id="rect4147"
         width="72.811531"
         height="45"
         x="-151.90051"
         y="-49.818356"
         transform="matrix(-0.5,-0.8660254,-0.8660254,0.5,0,0)" />
    </g>
    <g
       id="g4183"
       transform="matrix(0.76309331,0,0,0.77890633,21.109532,222.74475)"
       inkscape:export-xdpi="90"
       inkscape:export-ydpi="90">
      <path
         style="fill:none;fill-opacity:1;stroke:#000000;stroke-width:1.94853592;stroke-miterlimit:4;stroke-dasharray:none;stroke-opacity:1"
         d="m 104.02859,200.23823 -73.676744,-42.53725 -2e-6,-85.074526 73.676746,-42.537278 73.67671,42.537274 1e-5,85.07453 z"
         id="path4169"
         inkscape:connector-curvature="0"
         sodipodi:nodetypes="ccccccc" />
      <circle
         style="fill:#000000;fill-opacity:1;stroke:#000000;stroke-width:3.31111097;stroke-miterlimit:4;stroke-dasharray:none;stroke-opacity:1"
         id="circle4171"
         cx="104.02858"
         cy="115.1637"
         r="35.594444" />
      <g
         id="g4173"
         transform="matrix(1.0039388,0,0,1.0039388,-2.1725197,-0.15091844)">
        <rect
           transform="matrix(0.5,-0.8660254,0.8660254,0.5,0,0)"
           y="133.40565"
           x="-46.116077"
           height="45"
           width="72.811531"
           id="rect4175"
           style="fill:none;fill-opacity:1;stroke:#000000;stroke-width:2;stroke-miterlimit:4;stroke-dasharray:none;stroke-opacity:1" />
        <rect
           style="fill:none;fill-opacity:1;stroke:#000000;stroke-width:2;stroke-miterlimit:4;stroke-dasharray:none;stroke-opacity:1"
           id="rect4177"
           width="72.811531"
           height="45"
           x="-119.85819"
           y="119.68056"
           transform="matrix(0.5,-0.8660254,0.8660254,0.5,0,0)" />
        <rect
           transform="matrix(-0.5,-0.8660254,-0.8660254,0.5,0,0)"
           y="-63.543457"
           x="-225.64262"
           height="45"
           width="72.811531"
           id="rect4179"
           style="fill:none;fill-opacity:1;stroke:#000000;stroke-width:2;stroke-miterlimit:4;stroke-dasharray:none;stroke-opacity:1" />
        <rect
           style="fill:none;fill-opacity:1;stroke:#000000;stroke-width:2;stroke-miterlimit:4;stroke-dasharray:none;stroke-opacity:1"
           id="rect4181"
           width="72.811531"
           height="45"
           x="-151.90051"
           y="-49.818356"
           transform="matrix(-0.5,-0.8660254,-0.8660254,0.5,0,0)" />
      </g>
    </g>
    <path
       sodipodi:nodetypes="ccccccc"
       inkscape:connector-curvature="0"
       id="path4192"
       d="m 326.76723,206.60218 -73.67675,-42.53725 0,-85.074522 73.67675,-42.537278 73.67671,42.537274 10e-6,85.074526 z"
       style="fill:none;fill-opacity:1;stroke:#000000;stroke-width:1.94853592;stroke-miterlimit:4;stroke-dasharray:none;stroke-opacity:1" />
    <circle
       r="35.594444"
       cy="121.52766"
       cx="326.76721"
       id="circle4194"
       style="fill:#000000;fill-opacity:1;stroke:#000000;stroke-width:3.31111097;stroke-miterlimit:4;stroke-dasharray:none;stroke-opacity:1" />
    <g
       id="g4218"
       transform="translate(-2.6549531,2.035257)">
      <rect
         transform="matrix(0.5,-0.8660254,0.8660254,0.5,0,0)"
         y="335.07086"
         x="69.288528"
         height="32.526913"
         width="65.053825"
         id="rect4210"
         style="fill:none;fill-opacity:1;stroke:#000000;stroke-width:2;stroke-miterlimit:4;stroke-dasharray:none;stroke-opacity:1" />
      <rect
         style="fill:none;fill-opacity:1;stroke:#000000;stroke-width:2;stroke-miterlimit:4;stroke-dasharray:none;stroke-opacity:1"
         id="rect4212"
         width="65.053825"
         height="32.526913"
         x="-11.887097"
         y="322.47055"
         transform="matrix(0.5,-0.8660254,0.8660254,0.5,0,0)" />
      <rect
         transform="matrix(-0.5,-0.8660254,-0.8660254,0.5,0,0)"
         y="-248.10538"
         x="-341.30927"
         height="32.526913"
         width="65.053825"
         id="rect4214"
         style="fill:none;fill-opacity:1;stroke:#000000;stroke-width:2;stroke-miterlimit:4;stroke-dasharray:none;stroke-opacity:1" />
      <rect
         style="fill:none;fill-opacity:1;stroke:#000000;stroke-width:2;stroke-miterlimit:4;stroke-dasharray:none;stroke-opacity:1"
         id="rect4216"
         width="65.053825"
         height="32.526913"
         x="-260.13364"
         y="-235.50507"
         transform="matrix(-0.5,-0.8660254,-0.8660254,0.5,0,0)" />
    </g>
    <g
       id="g4258"
       inkscape:export-xdpi="90"
       inkscape:export-ydpi="90">
      <path
         sodipodi:nodetypes="cccccccccccccccccccccccccc"
         inkscape:connector-curvature="0"
         id="path4224"
         d="m 336.76723,238.95313 -27.9289,16.77368 32.52691,56.33826 -9.19605,0 32.52691,-56.33827 z m 73.67672,127.6118 -10e-6,-85.07453 -17.5787,-9.50014 -32.52691,56.33827 -10e-6,-8.60175 32.52691,56.33826 z m -129.77477,9.50014 32.52692,-56.33827 10e-6,8.60173 -32.52691,-56.33826 -17.57872,9.50014 0,85.07452 z m 56.09805,33.03711 27.92886,-16.77368 -32.52691,-56.33826 9.19605,1e-5 -32.52691,56.33827 z"
         style="fill:none;fill-opacity:1;stroke:#000000;stroke-width:1.94853592;stroke-miterlimit:4;stroke-dasharray:none;stroke-opacity:1" />
      <circle
         r="35.594444"
         cy="324.02765"
         cx="336.76721"
         id="circle4226"
         style="fill:#000000;fill-opacity:1;stroke:#000000;stroke-width:3.31111097;stroke-miterlimit:4;stroke-dasharray:none;stroke-opacity:1" />
    </g>
    <path
       sodipodi:nodetypes="cccccccccccccccccccccccccc"
       inkscape:connector-curvature="0"
       id="path4264"
       d="m 344.56813,454.62053 -27.9289,16.77368 32.52691,56.33826 -9.19605,0 32.52691,-56.33827 z m 73.67672,127.6118 -10e-6,-85.07453 -17.5787,-9.50014 -32.52691,56.33827 -10e-6,-8.60175 32.52691,56.33826 z m -129.77477,9.50014 32.52692,-56.33827 10e-6,8.60173 -32.52691,-56.33826 -17.57872,9.50014 0,85.07452 z m 56.09805,33.03711 27.92886,-16.77368 -32.52691,-56.33826 9.19605,10e-6 -32.52691,56.33827 z"
       style="fill:#17b122;fill-opacity:1;stroke:#000000;stroke-width:0.30000001;stroke-miterlimit:4;stroke-dasharray:none;stroke-opacity:1" />
    <circle
       r="35.594444"
       cy="539.69507"
       cx="344.56812"
       id="circle4266"
       style="fill:#eef51b;fill-opacity:1;stroke:#000000;stroke-width:0.30000001;stroke-miterlimit:4;stroke-dasharray:none;stroke-opacity:1" />
    <g
       id="g4288"
       transform="translate(185.06812,6.0828705)">
      <g
         id="g4284">
        <circle
           style="fill:#ce2122;fill-opacity:1;stroke:#000000;stroke-width:0.30000001;stroke-miterlimit:4;stroke-dasharray:none;stroke-opacity:1"
           id="path4272"
           cx="159.5"
           cy="518.86218"
           r="9.5" />
        <circle
           r="9.5"
           cy="548.36218"
           cx="159.5"
           id="circle4274"
           style="fill:#ce2122;fill-opacity:1;stroke:#000000;stroke-width:0.30000001;stroke-miterlimit:4;stroke-dasharray:none;stroke-opacity:1" />
      </g>
      <g
         transform="matrix(0,1,-1,0,692.61218,414.61218)"
         id="g4280">
        <circle
           r="9.5"
           cy="-518.36218"
           cx="-119"
           id="circle4276"
           style="fill:#ce2122;fill-opacity:1;stroke:#000000;stroke-width:0.30000001;stroke-miterlimit:4;stroke-dasharray:none;stroke-opacity:1"
           transform="scale(-1,-1)" />
        <circle
           style="fill:#ce2122;fill-opacity:1;stroke:#000000;stroke-width:0.30000001;stroke-miterlimit:4;stroke-dasharray:none;stroke-opacity:1"
           id="circle4278"
           cx="-119"
           cy="-547.86218"
           r="9.5"
           transform="scale(-1,-1)" />
      </g>
    </g>
    <rect
       y="668.146"
       x="253.01903"
       height="183.09818"
       width="183.09818"
       id="rect4296"
       style="fill:#2f4267;fill-opacity:1;stroke:#000000;stroke-width:1.74959397;stroke-miterlimit:4;stroke-dasharray:none;stroke-opacity:1" />
    <path
       style="fill:#17b122;fill-opacity:1;stroke:#000000;stroke-width:0.30000001;stroke-miterlimit:4;stroke-dasharray:none;stroke-opacity:1"
       d="m 344.56813,674.62053 -27.9289,16.77368 32.52691,56.33826 -9.19605,0 32.52691,-56.33827 z m 73.67672,127.6118 -10e-6,-85.07453 -17.5787,-9.50014 -32.52691,56.33827 -10e-6,-8.60175 32.52691,56.33826 z m -129.77477,9.50014 32.52692,-56.33827 10e-6,8.60173 -32.52691,-56.33826 -17.57872,9.50014 0,85.07452 z m 56.09805,33.03711 27.92886,-16.77368 -32.52691,-56.33826 9.19605,10e-6 -32.52691,56.33827 z"
       id="path4298"
       inkscape:connector-curvature="0"
       sodipodi:nodetypes="cccccccccccccccccccccccccc" />
    <circle
       style="fill:#eef51b;fill-opacity:1;stroke:#000000;stroke-width:0.30000001;stroke-miterlimit:4;stroke-dasharray:none;stroke-opacity:1"
       id="circle4300"
       cx="344.56812"
       cy="759.69507"
       r="35.594444" />
    <path
       style="fill:#2f4267;fill-opacity:1;stroke:#000000;stroke-width:0.749;stroke-miterlimit:4;stroke-dasharray:none;stroke-opacity:1"
       d="m 506.76723,206.60218 -73.67675,-42.53725 0,-85.074522 73.67675,-42.537278 73.67671,42.537274 10e-6,85.074526 z"
       id="path4318"
       inkscape:connector-curvature="0"
       sodipodi:nodetypes="ccccccc" />
    <path
       style="fill:#eef51b;fill-opacity:1;stroke:#000000;stroke-width:1;stroke-miterlimit:4;stroke-dasharray:none;stroke-opacity:1"
       d="m 478.83752,53.226875 -28.16797,16.263672 20.82031,39.525383 -3.31786,12.51172 3.30029,12.53907 -20.80274,39.49804 28.16797,16.26367 19.49414,-33.76367 8.43555,6.05844 8.4375,-6.05453 19.49023,33.75976 28.16992,-16.26367 -20.82031,-39.52539 3.31645,-12.51172 -3.29887,-12.54101 20.80273,-39.496093 -28.16992,-16.263672 -19.49414,33.763672 -8.43359,-6.356342 -8.4375,6.352436 z"
       id="rect4324"
       inkscape:connector-curvature="0"
       sodipodi:nodetypes="ccccccccccccccccccccc" />
    <circle
       style="fill:#17b122;fill-opacity:1;stroke:#000000;stroke-width:0.528;stroke-miterlimit:4;stroke-dasharray:none;stroke-opacity:1"
       id="path4338"
       cx="506.76721"
       cy="121.52766"
       r="18.134098" />
    <path
       sodipodi:nodetypes="ccccccc"
       inkscape:connector-curvature="0"
       id="path4340"
       d="m 506.76723,410.60218 -73.67675,-42.53725 0,-85.07452 73.67675,-42.53728 73.67671,42.53727 10e-6,85.07453 z"
       style="fill:#ce2122;fill-opacity:1;stroke:#000000;stroke-width:0.74900001;stroke-miterlimit:4;stroke-dasharray:none;stroke-opacity:1" />
    <path
       sodipodi:nodetypes="ccccccccccccccccccccc"
       inkscape:connector-curvature="0"
       id="path4342"
       d="m 478.83752,257.22687 -28.16797,16.26368 20.82031,39.52538 -3.31786,12.51172 3.30029,12.53907 -20.80274,39.49804 28.16797,16.26367 19.49414,-33.76367 8.43555,6.05844 8.4375,-6.05453 19.49023,33.75976 28.16992,-16.26367 -20.82031,-39.52539 3.31645,-12.51172 -3.29887,-12.54101 20.80273,-39.49609 -28.16992,-16.26368 -19.49414,33.76368 -8.43359,-6.35635 -8.4375,6.35244 z"
       style="fill:#eef51b;fill-opacity:1;stroke:#000000;stroke-width:1;stroke-miterlimit:4;stroke-dasharray:none;stroke-opacity:1" />
    <circle
       r="18.134098"
       cy="325.52765"
       cx="506.76721"
       id="circle4344"
       style="fill:#ce2122;fill-opacity:1;stroke:#000000;stroke-width:0.528;stroke-miterlimit:4;stroke-dasharray:none;stroke-opacity:1" />
    <path
       id="path4194"
       d="m 663.67286,758.78614 -16.77345,-27.9297 -33.75976,19.4922 a 35.594444,35.594444 0 0 0 -22.0293,-24.83985 l 39.5254,-22.82031 -9.5,-17.57812 -85.07422,0 -9.5,17.57812 39.4961,22.80273 a 35.594444,35.594444 0 0 0 -21.9961,24.85938 l -33.76367,-19.49415 -16.77345,27.9297 16.77345,27.92968 33.75977,-19.49218 a 35.594444,35.594444 0 0 0 22.02929,24.83984 l -39.52539,22.8203 9.5,17.58008 85.07422,0 9.5,-17.58008 -39.49609,-22.80273 a 35.594444,35.594444 0 0 0 21.99609,-24.85938 l 33.76367,19.49415 16.77344,-27.92968 z"
       style="fill:#eef51b;fill-opacity:1;stroke:#000000;stroke-width:1.94853592;stroke-miterlimit:4;stroke-dasharray:none;stroke-opacity:1"
       inkscape:connector-curvature="0"
       inkscape:export-xdpi="90"
       inkscape:export-ydpi="90" />
    <g
       id="g4225"
       inkscape:export-xdpi="90"
       inkscape:export-ydpi="90">
      <path
         id="path4187"
         d="M 578.59766 473.71289 L 550.66797 490.48633 L 570.16016 524.24609 A 35.594444 35.594444 0 0 0 545.32031 546.27539 L 522.5 506.75 L 504.92188 516.25 L 504.92188 601.32422 L 522.5 610.82422 L 545.30273 571.32812 A 35.594444 35.594444 0 0 0 570.16211 593.32422 L 550.66797 627.08789 L 578.59766 643.86133 L 606.52734 627.08789 L 587.03516 593.32812 A 35.594444 35.594444 0 0 0 611.875 571.29883 L 634.69531 610.82422 L 652.27539 601.32422 L 652.27539 516.25 L 634.69531 506.75 L 611.89258 546.24609 A 35.594444 35.594444 0 0 0 587.0332 524.25 L 606.52734 490.48633 L 578.59766 473.71289 z "
         style="fill:#2f4267;fill-opacity:1;stroke:#000000;stroke-width:1.94853592;stroke-miterlimit:4;stroke-dasharray:none;stroke-opacity:1" />
      <rect
         y="537.72437"
         x="512.81335"
         height="42.12553"
         width="131.57054"
         id="rect4202"
         style="fill:#eef5e7;fill-opacity:1;stroke:#000000;stroke-width:1.636;stroke-miterlimit:4;stroke-dasharray:none;stroke-opacity:1" />
      <text
         sodipodi:linespacing="125%"
         id="text4196"
         y="553.21667"
         x="577.43335"
         style="font-style:normal;font-variant:normal;font-weight:bold;font-stretch:normal;font-size:14.77075768px;line-height:125%;font-family:'Courier New';-inkscape-font-specification:'Courier New, Bold';text-align:center;letter-spacing:0px;word-spacing:0px;writing-mode:lr-tb;text-anchor:middle;fill:#000000;fill-opacity:1;stroke:none;stroke-width:1px;stroke-linecap:butt;stroke-linejoin:miter;stroke-opacity:1"
         xml:space="preserve"><tspan
           y="553.21667"
           x="577.43335"
           id="tspan4198"
           sodipodi:role="line">metacommunity</tspan><tspan
           id="tspan4200"
           y="581.34167"
           x="577.43335"
           sodipodi:role="line">info</tspan></text>
    </g>
    <g
       transform="matrix(0.70056783,0,0,0.70056783,247.30689,-214.30556)"
       id="g4210"
       inkscape:export-xdpi="90"
       inkscape:export-ydpi="90">
      <rect
         style="fill:#eef5e7;fill-opacity:1;stroke:#000000;stroke-width:3.71057272;stroke-miterlimit:4;stroke-dasharray:none;stroke-opacity:1"
         id="rect4213"
         width="200.41876"
         height="64.168976"
         x="466.89023"
         y="891.58435" />
      <text
         xml:space="preserve"
         style="font-style:normal;font-variant:normal;font-weight:bold;font-stretch:normal;font-size:22.5px;line-height:125%;font-family:'Courier New';-inkscape-font-specification:'Courier New, Bold';text-align:center;letter-spacing:0px;word-spacing:0px;writing-mode:lr-tb;text-anchor:middle;fill:#000000;fill-opacity:1;stroke:none;stroke-width:1px;stroke-linecap:butt;stroke-linejoin:miter;stroke-opacity:1"
         x="565.32452"
         y="915.18347"
         id="text4215"
         sodipodi:linespacing="125%"><tspan
           sodipodi:role="line"
           id="tspan4217"
           x="565.32452"
           y="915.18347">metacommunity</tspan><tspan
           sodipodi:role="line"
           x="565.32452"
           y="943.30847"
           id="tspan4219">info</tspan></text>
    </g>
    <g
       id="g4244"
       transform="translate(1.9013573,12)"
       inkscape:export-xdpi="90"
       inkscape:export-ydpi="90">
      <g
         transform="matrix(0.70056783,0,0,0.70056783,-228.6931,289.69443)"
         id="g4232"
         inkscape:export-xdpi="90"
         inkscape:export-ydpi="90">
        <rect
           style="fill:#eef5e7;fill-opacity:1;stroke:#000000;stroke-width:3.71057272;stroke-miterlimit:4;stroke-dasharray:none;stroke-opacity:1"
           id="rect4234"
           width="200.41876"
           height="64.168976"
           x="466.89023"
           y="891.58435" />
        <text
           xml:space="preserve"
           style="font-style:normal;font-variant:normal;font-weight:bold;font-stretch:normal;font-size:22.5px;line-height:125%;font-family:'Courier New';-inkscape-font-specification:'Courier New, Bold';text-align:center;letter-spacing:0px;word-spacing:0px;writing-mode:lr-tb;text-anchor:middle;fill:#000000;fill-opacity:1;stroke:none;stroke-width:1px;stroke-linecap:butt;stroke-linejoin:miter;stroke-opacity:1"
           x="565.32452"
           y="915.18347"
           id="text4236"
           sodipodi:linespacing="125%"><tspan
             sodipodi:role="line"
             id="tspan4238"
             x="565.32452"
             y="915.18347">metacommunity</tspan><tspan
             sodipodi:role="line"
             x="565.32452"
             y="943.30847"
             id="tspan4240">info</tspan></text>
      </g>
    </g>
  </g>
</svg>
